<?xml version="1.0"?>
<svg id="Camada_2" data-name="Camada 2" xmlns="http://www.w3.org/2000/svg" viewBox="0 0 730.07 218.91">
  <defs>
    
  </defs>
  <g id="Dimensions">
    <g>
      <path fill="#fff5d9" d="M193.68,108.13c-3.05-1.77-6.81-2.65-11.28-2.65-4.1,0-7.71.98-10.82,2.94-3.11,1.96-5.5,4.68-7.18,8.14-.59,1.21-1.07,2.49-1.45,3.83h39.2c-.38-1.63-.9-3.17-1.57-4.61-1.56-3.34-3.85-5.89-6.9-7.65Z"></path>
      <path fill="#fff5d9" d="M392.29,108.13c-3.05-1.77-6.81-2.65-11.28-2.65-4.1,0-7.71.98-10.82,2.94-3.11,1.96-5.5,4.68-7.18,8.14-.59,1.21-1.07,2.49-1.45,3.83h39.2c-.38-1.63-.9-3.17-1.57-4.61-1.56-3.34-3.86-5.89-6.9-7.65Z"></path>
      <path fill="#fff5d9" d="M714.35,70.15h-21.78c-2.45,0-4.77.57-6.85,1.58-6.9-3.14-14.39-4.72-22.36-4.72-10.94,0-21.03,2.98-29.99,8.86-2.94,1.93-5.67,4.12-8.21,6.52.42-1.43.65-2.93.65-4.49v-22.03c0-8.73-7.05-15.84-15.72-15.84h-15.43v-12.02c0-8.73-7.05-15.84-15.72-15.84h-22.34c-8.67,0-15.72,7.11-15.72,15.84v12.02h-9.15c-8.67,0-15.72,7.11-15.72,15.84v16.01c-7.07-3.23-14.75-4.86-22.93-4.86s-15.26,1.57-22.11,4.68c-2.07-.99-4.39-1.54-6.83-1.54h-21.2c-8.82,0-16,7.24-16,16.14v3.34c-4.52-5.86-10-10.71-16.39-14.49-9.14-5.4-19.52-8.13-30.85-8.13s-21.47,2.86-30.49,8.51c-6.8,4.25-12.53,9.76-17.12,16.4-2.52-3.48-5.38-6.67-8.55-9.52-5.39-4.83-11.53-8.64-18.28-11.31-6.84-2.7-14.23-4.08-21.98-4.08-11.4,0-21.94,2.9-31.31,8.63-8.09,4.95-14.76,11.49-19.88,19.48-5.11-8.36-11.87-15.08-20.16-19.98-9.14-5.4-19.52-8.13-30.85-8.13s-21.09,2.77-30,8.21c.4-3.03.6-6.12.6-9.27,0-12.16-2.88-23.38-8.55-33.37-5.65-9.94-13.34-17.92-22.86-23.71C110.6,2.98,99.63,0,87.67,0H15.72C7.05,0,0,7.11,0,15.84v159.37c0,8.73,7.05,15.84,15.72,15.84h27.65c8.67,0,15.72-7.11,15.72-15.84v-27.91l30.53,37.9c3,3.72,7.45,5.85,12.2,5.85h37.75c4.98,0,9.53-2.31,12.46-6.19,0,0,.01.01.02.02,9.23,5.81,19.68,9,31.06,9.5h.21c.49.02.99.03,1.48.03,5.65,0,11.48-.89,17.34-2.63,6.11-1.82,11.88-4.37,17.12-7.58,4.5-2.74,8.36-5.83,11.48-9.18,1.61-1.73,2.74-3.75,3.43-5.88,4.8,6.62,10.76,12.13,17.79,16.43,9.37,5.73,19.9,8.63,31.31,8.63,8.57,0,16.67-1.68,24.09-4.98,7.3-3.25,13.77-7.83,19.26-13.59,2.23-2.35,4.26-4.88,6.1-7.56,4.85,6.71,10.85,12.36,17.94,16.82,9.23,5.81,19.68,9,31.06,9.5h.21c.49.02.99.03,1.48.03,5.65,0,11.49-.89,17.34-2.63,6.11-1.82,11.88-4.37,17.12-7.58,3.4-2.07,6.43-4.34,9.05-6.77v25.34c0,8.9,7.18,16.14,16,16.14h21.2c8.82,0,16-7.24,16-16.14v-10.1c4.16,1.01,8.48,1.52,12.93,1.52,11.06,0,21.21-2.98,30.18-8.86,8.65-5.67,15.62-13.44,20.71-23.08.37-.71.73-1.42,1.07-2.14.57,1.4,1.18,2.79,1.88,4.14,4.08,7.98,9.79,14.45,16.97,19.25,7.5,5.01,15.92,7.55,25.05,7.55h21.15c7.38,0,13.57-5.16,15.25-12.08,2.49,2.34,5.15,4.47,8.03,6.36,8.96,5.88,19.05,8.86,29.99,8.86,7.94,0,15.45-1.59,22.35-4.73,2.07,1.02,4.4,1.59,6.85,1.59h21.78c8.67,0,15.72-7.11,15.72-15.84v-89.22c0-8.73-7.05-15.84-15.72-15.84ZM139.57,177.68h-37.75c-.69,0-1.35-.32-1.79-.87l-46.55-57.78c-.35-.44-.54-1-.54-1.58v-29.08c0-1.37,1.05-2.48,2.35-2.48h32.39c3.72,0,7.03-.9,9.93-2.7,2.9-1.8,5.21-4.18,6.92-7.16,1.71-2.97,2.57-6.42,2.57-10.33s-.86-7.16-2.57-10.21c-1.71-3.05-4.02-5.44-6.92-7.16-2.9-1.72-6.21-2.58-9.93-2.58h-40.7c-.69,0-1.25.59-1.25,1.32v128.13c0,1.37-1.05,2.48-2.35,2.48H15.72c-1.3,0-2.35-1.11-2.35-2.48V15.84c0-1.37,1.05-2.48,2.35-2.48h71.95c9.52,0,18.07,2.31,25.66,6.93,7.59,4.62,13.65,10.92,18.19,18.9,4.54,7.98,6.81,16.9,6.81,26.76s-2.27,18.51-6.81,26.41c-4.54,7.9-10.6,14.2-18.19,18.9-4.96,3.07-10.34,5.13-16.12,6.19l44.17,56.19c1.27,1.61.18,4.05-1.81,4.05ZM227.71,134.42c-.06.74-.13,1.44-.21,2.09-.16,1.22-1.16,2.13-2.33,2.13h-61.67c.45,1.32.99,2.6,1.64,3.83,2.17,4.12,5.13,7.36,8.86,9.71,3.73,2.35,7.89,3.53,12.5,3.53,2.36,0,4.78-.39,7.27-1.18,2.49-.78,4.88-1.89,7.18-3.34,1.5-.94,2.81-1.91,3.92-2.91.94-.85,2.35-.78,3.21.16l12.88,14.03c.88.95.9,2.48.02,3.42-2.29,2.46-5.18,4.76-8.65,6.87-4.29,2.62-8.95,4.68-13.99,6.18-5.04,1.5-9.92,2.19-14.64,2.06-9.08-.39-17.25-2.88-24.52-7.46-7.27-4.58-13.05-10.62-17.34-18.15-4.29-7.52-6.43-15.79-6.43-24.82,0-9.81,1.99-18.47,5.97-26,3.98-7.52,9.42-13.44,16.32-17.76,6.9-4.32,14.7-6.47,23.41-6.47s16.97,2.09,24.06,6.28c7.09,4.19,12.68,10.04,16.78,17.56,4.1,7.52,6.09,16.19,5.97,26,0,1.18-.06,2.58-.19,4.22ZM325.96,152.91c-2.27,5.07-5.28,9.57-9.01,13.49-4.29,4.51-9.3,8.04-15.01,10.59-5.72,2.55-11.94,3.83-18.65,3.83-8.95,0-17.06-2.23-24.34-6.67-7.27-4.44-13.03-10.46-17.25-18.05-4.23-7.58-6.34-16.09-6.34-25.51s2.11-17.92,6.34-25.51c4.23-7.58,9.98-13.6,17.25-18.05,7.27-4.45,15.39-6.67,24.34-6.67,6.09,0,11.78,1.05,17.06,3.14,5.28,2.09,10.04,5.04,14.27,8.83,3.65,3.28,6.74,7.09,9.28,11.44.67,1.15.35,2.66-.73,3.39l-15.56,10.6c-1.09.75-2.56.42-3.25-.75-1.02-1.72-2.33-3.28-3.92-4.67-2.24-1.96-4.73-3.53-7.46-4.71-2.74-1.18-5.59-1.77-8.58-1.77-4.48,0-8.52,1.08-12.12,3.24-3.61,2.16-6.37,5.1-8.3,8.83-1.93,3.73-2.89,7.95-2.89,12.65s.96,8.73,2.89,12.46c1.93,3.73,4.69,6.61,8.3,8.63,3.6,2.03,7.65,3.04,12.12,3.04,3.23,0,6.25-.59,9.04-1.77,2.8-1.18,5.28-2.85,7.46-5,1.63-1.62,2.97-3.4,4-5.35.59-1.12,1.93-1.53,3.04-1.01l16.84,8c1.2.57,1.73,2.06,1.17,3.31ZM426.33,134.42c-.06.74-.13,1.44-.21,2.09-.16,1.22-1.16,2.13-2.33,2.13h-61.67c.45,1.32.99,2.6,1.64,3.83,2.17,4.12,5.13,7.36,8.86,9.71,3.73,2.35,7.89,3.53,12.49,3.53,2.36,0,4.78-.39,7.27-1.18,2.49-.78,4.88-1.89,7.18-3.34,1.5-.94,2.81-1.91,3.91-2.91.94-.85,2.35-.78,3.21.16l12.88,14.03c.88.95.9,2.48.02,3.42-2.29,2.46-5.18,4.76-8.65,6.87-4.29,2.62-8.95,4.68-13.99,6.18-5.04,1.5-9.92,2.19-14.64,2.06-9.08-.39-17.25-2.88-24.52-7.46-7.27-4.58-13.05-10.62-17.34-18.15-4.29-7.52-6.43-15.79-6.43-24.82,0-9.81,1.99-18.47,5.97-26,3.98-7.52,9.42-13.44,16.32-17.76,6.9-4.32,14.7-6.47,23.4-6.47s16.97,2.09,24.06,6.28c7.09,4.19,12.68,10.04,16.78,17.56,4.1,7.52,6.09,16.19,5.97,26,0,1.18-.06,2.58-.19,4.22ZM532.17,156.01c-4.04,7.65-9.45,13.7-16.23,18.15-6.78,4.45-14.39,6.67-22.85,6.67-6.13,0-11.82-1.24-17.08-3.72-.96-.45-1.58-1.45-1.58-2.55v-22c0-1.81,1.87-2.95,3.36-2.05,3.36,2.03,7.02,3.04,11,3.04,4.23,0,7.99-1.01,11.28-3.04,3.29-2.03,5.9-4.77,7.83-8.24,1.93-3.46,2.89-7.36,2.89-11.67s-.97-8.21-2.89-11.67c-1.93-3.46-4.54-6.21-7.83-8.24-3.3-2.03-7.06-3.04-11.28-3.04-3.98,0-7.65,1.01-11,3.04-3.36,2.03-6.03,4.78-8.02,8.24-1.99,3.47-2.98,7.29-2.98,11.48,0,.1,0,.2,0,.3h0v72.06c0,1.53-1.18,2.78-2.64,2.78h-21.2c-1.46,0-2.64-1.24-2.64-2.78v-116.48c0-1.53,1.18-2.78,2.64-2.78h21.2c1.46,0,2.64,1.24,2.64,2.78v3.17c0,.25.27.39.46.23,1.14-.94,2.31-1.83,3.55-2.65,6.65-4.45,14.08-6.67,22.29-6.67s16.07,2.23,22.85,6.67c6.78,4.45,12.18,10.47,16.23,18.05,4.04,7.59,6.06,16.09,6.06,25.51s-2.02,17.76-6.06,25.41ZM612.45,175.21c0,1.37-1.05,2.48-2.35,2.48h-21.15c-6.47,0-12.34-1.77-17.62-5.3-5.29-3.53-9.45-8.27-12.5-14.22-3.05-5.95-4.57-12.59-4.57-19.91v-57.88h-22.52c-1.3,0-2.35-1.11-2.35-2.48v-22.03c0-1.37,1.05-2.48,2.35-2.48h22.52v-25.38c0-1.37,1.05-2.48,2.35-2.48h22.34c1.3,0,2.35,1.11,2.35,2.48v25.38h28.79c1.3,0,2.35,1.11,2.35,2.48v22.03c0,1.37-1.05,2.48-2.35,2.48h-28.79v57.88c0,2.62.56,4.94,1.68,6.97,1.12,2.03,2.64,3.66,4.57,4.9,1.93,1.24,4.07,1.86,6.43,1.86h16.11c1.3,0,2.35,1.11,2.35,2.48v20.75ZM612.74,98.88c-4.97,9.48-7.5,20.15-7.5,31.71,0,2.72.15,5.4.43,8.02h-10.99c0-.09-.02-.21-.02-.37v-44.51h15.43c2.38,0,4.63-.55,6.65-1.51-1.45,2.11-2.79,4.33-4.01,6.66ZM716.7,175.21c0,1.37-1.05,2.48-2.35,2.48h-21.78c-1.3,0-2.35-1.11-2.35-2.48v-44.61h-.19c0-4.32-1-8.21-2.98-11.67-1.99-3.46-4.66-6.21-8.02-8.24-3.36-2.03-7.03-3.04-11-3.04-4.23,0-7.99,1.01-11.28,3.04-3.3,2.03-5.94,4.78-7.93,8.24-1.99,3.47-2.98,7.29-2.98,11.48s.99,8.24,2.98,11.77c1.99,3.53,4.63,6.31,7.93,8.34,3.29,2.03,7.06,3.04,11.28,3.04,3.98,0,7.65-1.01,11-3.04h.02c1.57-.96,3.53.23,3.53,2.13v21.92c0,.98-.55,1.85-1.39,2.26-5.44,2.66-11.38,4-17.83,4-8.33,0-15.88-2.23-22.66-6.67-6.78-4.44-12.15-10.5-16.13-18.15-3.98-7.65-5.97-16.12-5.97-25.41s1.99-17.92,5.97-25.51c3.98-7.58,9.35-13.6,16.13-18.05,6.78-4.45,14.33-6.67,22.66-6.67s15.82,2.23,22.47,6.67c1.54,1.03,2.99,2.15,4.38,3.34v-4.4c0-1.37,1.05-2.48,2.35-2.48h21.78c1.3,0,2.35,1.11,2.35,2.48v89.22Z"></path>
    </g>
  </g>
</svg>