<?xml version="1.0"?>
<svg id="Logotipo" xmlns="http://www.w3.org/2000/svg" viewBox="0 0 183.15 199.15">
  <defs>
    
  </defs>
  <path fill="#d4432c" d="M180.15,145.09c1.66,0,3-1.34,3-3v-22.14c0-1.66-1.34-3-3-3h-31.17v-18.65l1.66-2.57c5.78-9.57,8.68-20.24,8.68-32.01s-2.89-22.76-8.68-32.43c-5.79-9.67-13.51-17.31-23.19-22.9C117.78,2.8,106.87,0,94.74,0H3C1.34,0,0,1.34,0,3v193.15c0,1.66,1.34,3,3,3h35.25c1.66,0,3-1.34,3-3V42.26c0-1.66,1.34-3,3-3h50.49c4.74,0,8.96,1.04,12.66,3.13,3.7,2.09,6.64,4.98,8.82,8.68,2.18,3.7,3.27,7.82,3.27,12.38s-1.09,8.92-3.27,12.52c-2.18,3.61-5.12,6.5-8.82,8.68-3.7,2.18-7.92,3.27-12.66,3.27h-41.29c-1.66,0-3,1.34-3,3v34.88c0,.93.33,1.83.92,2.55l59.12,69.75c.57.67,1.41,1.06,2.29,1.06h23.95c2.96,0,4.01-3.87,1.49-5.41-.06-.04-.12-.07-.18-.11-5.8-3.68-10.37-8.62-13.71-14.83-3.34-6.2-5.01-13.13-5.01-20.77v-11.94c0-.55-.45-.99-.99-.99h-23.29c-1.66,0-3-1.34-3-3v-22.14c0-1.66,1.34-3,3-3h23.29c.55,0,.99-.45.99-1v-25.06c0-1.66,1.34-3,3-3h23.67c1.66,0,3,1.34,3,3v7.4c-5.58,8.38-12.74,15.17-21.53,20.34-1.61.95-3.26,1.82-4.94,2.61-7.16,3.36-9.33,12.48-4.29,18.58l45,54.42,3.07,3.8c.57.71,1.43,1.12,2.33,1.12h11.53c1.66,0,3-1.34,3-3v-20.8c0-1.66-1.34-3-3-3h-17.25c-2.59,0-4.95-.65-7.06-1.94-2.12-1.29-3.78-3-5.01-5.11-1.23-2.11-1.84-4.53-1.84-7.26v-12.93h31.17Z"></path>
</svg>