<?xml version="1.0"?>
<svg id="Logotipo" xmlns="http://www.w3.org/2000/svg" viewBox="0 0 896.75 232.91">
  <defs>
    
  </defs>
  <path fill="#d4432c" d="M244.52,88.82c-9.04-5.07-19.26-7.61-30.67-7.61s-21.04,2.62-29.84,7.85c-8.8,5.23-15.73,12.41-20.81,21.52-5.08,9.12-7.61,19.62-7.61,31.51,0,10.94,2.73,20.97,8.2,30.08,5.47,9.12,12.84,16.45,22.11,21.99s19.69,8.56,31.27,9.04c6.02.16,12.25-.68,18.67-2.5,6.42-1.82,12.36-4.32,17.83-7.49,4.43-2.57,8.11-5.35,11.03-8.33,1.12-1.15,1.09-2.99-.02-4.15l-16.43-17c-1.1-1.14-2.89-1.23-4.09-.2-1.41,1.21-3.07,2.38-4.99,3.53-2.94,1.75-5.99,3.09-9.15,4.04-3.17.95-6.26,1.43-9.27,1.43-5.87,0-11.18-1.43-15.93-4.28-4.76-2.85-8.52-6.78-11.29-11.77-.82-1.48-1.51-3.03-2.09-4.64h78.63c1.5,0,2.78-1.1,2.97-2.58.1-.79.19-1.63.27-2.53.16-1.98.24-3.69.24-5.11.16-11.89-2.38-22.39-7.61-31.51-5.23-9.11-12.36-16.21-21.4-21.28ZM190.72,129.72c.49-1.62,1.1-3.17,1.85-4.64,2.14-4.2,5.19-7.49,9.15-9.87,3.96-2.38,8.56-3.57,13.79-3.57,5.71,0,10.5,1.07,14.39,3.21,3.88,2.14,6.81,5.23,8.8,9.27.86,1.75,1.52,3.62,2,5.59h-49.98Z"></path>
  <path fill="#d4432c" d="M106.9,126.14c7.38-1.29,14.23-3.78,20.55-7.5,9.67-5.69,17.4-13.32,23.19-22.9,5.78-9.57,8.68-20.24,8.68-32.01s-2.89-22.76-8.68-32.43c-5.79-9.67-13.51-17.31-23.19-22.9C117.78,2.8,106.87,0,94.74,0H3C1.34,0,0,1.34,0,3v193.15c0,1.66,1.34,3,3,3h35.25c1.66,0,3-1.34,3-3V40.86c0-.88.71-1.6,1.6-1.6h51.89c4.74,0,8.96,1.04,12.66,3.13,3.7,2.09,6.64,4.98,8.82,8.68,2.18,3.7,3.27,7.82,3.27,12.38s-1.09,8.92-3.27,12.52c-2.18,3.61-5.12,6.5-8.82,8.68-3.7,2.18-7.92,3.27-12.66,3.27h-41.29c-1.66,0-3,1.34-3,3v35.24c0,.7.25,1.37.69,1.91l59.35,70.02c.57.67,1.41,1.06,2.29,1.06h48.13c2.54,0,3.93-2.96,2.31-4.91l-56.32-68.1Z"></path>
  <path fill="#d4432c" d="M397.07,165.11l-21.47-9.69c-1.41-.64-3.12-.13-3.88,1.22-1.32,2.36-3.03,4.53-5.1,6.49-2.78,2.62-5.94,4.64-9.51,6.06-3.57,1.43-7.41,2.14-11.53,2.14-5.71,0-10.86-1.23-15.46-3.69-4.6-2.46-8.13-5.94-10.58-10.46-2.46-4.52-3.69-9.55-3.69-15.1s1.23-10.82,3.69-15.34c2.46-4.52,5.98-8.08,10.58-10.7,4.6-2.62,9.75-3.92,15.46-3.92,3.8,0,7.45.71,10.94,2.14,3.48,1.43,6.66,3.33,9.51,5.71,2.02,1.69,3.69,3.57,4.99,5.66.88,1.41,2.75,1.81,4.15.9l19.84-12.85c1.37-.89,1.78-2.71.92-4.11-3.24-5.27-7.18-9.89-11.83-13.86-5.39-4.6-11.45-8.16-18.19-10.7-6.74-2.53-13.99-3.8-21.76-3.8-11.41,0-21.76,2.7-31.03,8.08-9.27,5.39-16.61,12.68-21.99,21.88-5.39,9.2-8.08,19.5-8.08,30.91s2.69,21.72,8.08,30.91c5.39,9.2,12.72,16.49,21.99,21.88,9.27,5.39,19.62,8.08,31.03,8.08,8.56,0,16.48-1.55,23.78-4.64,7.29-3.09,13.67-7.37,19.14-12.84,4.76-4.76,8.59-10.21,11.49-16.35.71-1.51.04-3.33-1.49-4.02Z"></path>
  <path fill="#d4432c" d="M497.75,88.82c-9.04-5.07-19.26-7.61-30.67-7.61s-21.04,2.62-29.84,7.85c-8.8,5.23-15.73,12.41-20.81,21.52-5.08,9.12-7.61,19.62-7.61,31.51,0,10.94,2.73,20.97,8.2,30.08,5.47,9.12,12.84,16.45,22.11,21.99s19.69,8.56,31.27,9.04c6.02.16,12.25-.68,18.67-2.5s12.36-4.32,17.83-7.49c4.43-2.57,8.11-5.35,11.03-8.33,1.12-1.15,1.09-2.99-.02-4.15l-16.43-17c-1.1-1.14-2.89-1.23-4.09-.2-1.41,1.21-3.07,2.38-4.99,3.53-2.94,1.75-5.99,3.09-9.16,4.04-3.17.95-6.26,1.43-9.27,1.43-5.87,0-11.17-1.43-15.93-4.28s-8.52-6.78-11.29-11.77c-.82-1.48-1.51-3.03-2.09-4.64h78.63c1.5,0,2.78-1.1,2.97-2.58.1-.79.19-1.63.27-2.53.16-1.98.24-3.69.24-5.11.16-11.89-2.38-22.39-7.61-31.51-5.23-9.11-12.36-16.21-21.4-21.28ZM443.95,129.72c.49-1.62,1.1-3.17,1.85-4.64,2.14-4.2,5.19-7.49,9.15-9.87,3.96-2.38,8.56-3.57,13.79-3.57,5.71,0,10.5,1.07,14.39,3.21,3.88,2.14,6.81,5.23,8.8,9.27.86,1.75,1.52,3.62,2,5.59h-49.98Z"></path>
  <path fill="#d4432c" d="M760.83,48.51h-36.71v-30.76c0-1.66-1.34-3-3-3h-28.48c-1.66,0-3,1.34-3,3v30.76h-28.71c-1.66,0-3,1.34-3,3v26.7c0,1.66,1.34,3,3,3h28.71v70.15c0,8.88,1.94,16.92,5.83,24.13,3.88,7.22,9.19,12.96,15.93,17.24,6.74,4.28,14.23,6.42,22.47,6.42h26.96c1.66,0,3-1.34,3-3v-25.15c0-1.66-1.34-3-3-3h-20.54c-3.01,0-5.75-.75-8.2-2.26-2.46-1.5-4.4-3.48-5.83-5.94-1.43-2.46-2.14-5.27-2.14-8.44v-70.15h36.71c1.66,0,3-1.34,3-3v-26.7c0-1.66-1.34-3-3-3Z"></path>
  <path fill="#d4432c" d="M640.78,89.29c-8.64-5.39-18.35-8.08-29.13-8.08s-19.94,2.7-28.41,8.08c-1.57,1-3.07,2.08-4.53,3.22-.24.19-.59.02-.59-.28v-3.85c0-1.86-1.51-3.37-3.37-3.37h-27.03c-1.86,0-3.37,1.51-3.37,3.37v141.17c0,1.86,1.51,3.37,3.37,3.37h27.03c1.86,0,3.37-1.51,3.37-3.37v-87.34h.01c0-.12-.01-.24-.01-.37,0-5.07,1.27-9.71,3.8-13.91,2.53-4.2,5.95-7.53,10.22-9.99,4.28-2.46,8.95-3.69,14.03-3.69,5.39,0,10.18,1.23,14.39,3.69,4.2,2.46,7.53,5.79,9.99,9.99,2.46,4.2,3.69,8.92,3.69,14.15s-1.23,9.95-3.69,14.15c-2.46,4.2-5.79,7.53-9.99,9.99-4.2,2.46-9,3.69-14.39,3.69-5.08,0-9.75-1.23-14.03-3.69-1.91-1.1-4.29.28-4.29,2.48v26.66c0,1.34.79,2.54,2.01,3.09,6.71,3,13.96,4.51,21.77,4.51,10.78,0,20.49-2.7,29.13-8.08,8.64-5.39,15.53-12.72,20.69-21.99,5.15-9.27,7.73-19.54,7.73-30.79s-2.58-21.72-7.73-30.91c-5.15-9.19-12.05-16.48-20.69-21.88Z"></path>
  <path fill="#d4432c" d="M893.75,85.01h-27.76c-1.66,0-3,1.34-3,3v5.33c-1.77-1.45-3.63-2.81-5.59-4.05-8.48-5.39-18.03-8.08-28.65-8.08s-20.25,2.7-28.89,8.08c-8.64,5.39-15.5,12.68-20.57,21.88-5.08,9.2-7.61,19.5-7.61,30.91s2.53,21.52,7.61,30.79c5.07,9.27,11.93,16.61,20.57,21.99,8.64,5.39,18.27,8.08,28.89,8.08,8.22,0,15.79-1.62,22.73-4.85,1.07-.5,1.77-1.56,1.77-2.74v-26.56c0-2.31-2.5-3.75-4.5-2.6l-.03.02c-4.28,2.46-8.96,3.69-14.03,3.69-5.39,0-10.19-1.23-14.39-3.69-4.2-2.46-7.57-5.83-10.11-10.11-2.54-4.28-3.8-9.04-3.8-14.27s1.27-9.71,3.8-13.91c2.53-4.2,5.9-7.53,10.11-9.99,4.2-2.46,9-3.69,14.39-3.69,5.07,0,9.75,1.23,14.03,3.69,4.28,2.46,7.69,5.79,10.22,9.99,2.53,4.2,3.8,8.92,3.8,14.15h0s.24,0,.24,0v54.07c0,1.66,1.34,3,3,3h27.76c1.66,0,3-1.34,3-3v-108.13c0-1.66-1.34-3-3-3Z"></path>
</svg>